<?xml version="1.0" encoding="UTF-8" standalone="no"?>
<!-- Created with Inkscape (http://www.inkscape.org/) -->

<svg
   xmlns:dc="http://purl.org/dc/elements/1.1/"
   xmlns:cc="http://creativecommons.org/ns#"
   xmlns:rdf="http://www.w3.org/1999/02/22-rdf-syntax-ns#"
   xmlns:svg="http://www.w3.org/2000/svg"
   xmlns="http://www.w3.org/2000/svg"
   version="1.1"
   width="892.91339"
   height="276.02362"
   id="svg4423">
  <defs
     id="defs4425">
    <clipPath
       id="clipPath4297">
      <path
         d="m 12.496,12.496 612.283,0 0,858.898 -612.283,0 0,-858.898 z"
         id="path4299" />
    </clipPath>
  </defs>
  <metadata
     id="metadata4428">
    <rdf:RDF>
      <cc:Work
         rdf:about="">
        <dc:format>image/svg+xml</dc:format>
        <dc:type
           rdf:resource="http://purl.org/dc/dcmitype/StillImage" />
        <dc:title></dc:title>
      </cc:Work>
    </rdf:RDF>
  </metadata>
  <g
     transform="translate(29.392332,-359.8841)"
     id="layer1">
    <g
       transform="matrix(4.2462938,0,0,4.2462938,-924.75995,-1622.5506)"
       id="g4484">
      <g
         transform="matrix(1.25,0,0,-1.25,-306.87019,1502.0203)"
         id="g4293">
        <g
           clip-path="url(#clipPath4297)"
           id="g4295">
          <g
             transform="translate(579.731,795.8099)"
             id="g4301">
            <path
               d="m 0,0 -5.809,9.626 0,-15.76 c 0,-2.858 -1.909,-4.808 -4.264,-4.808 -2.354,0 -4.265,1.915 -4.265,4.268 0,0.475 0.08,0.93 0.223,1.358 l 0.062,0.169 0.057,0.15 6.574,17.3 -2.655,4.4 -10.208,-16.92 0.004,0 c -1.187,-1.866 -1.876,-4.08 -1.876,-6.457 0,-6.676 5.41,-12.086 12.084,-12.086 6.672,0 12.082,5.41 12.082,12.086 C 2.009,-4.207 1.268,-1.914 0,0"
               id="path4303"
               style="fill:#e31837;fill-opacity:1;fill-rule:nonzero;stroke:none" />
          </g>
          <g
             transform="translate(543.8789,808.6991)"
             id="g4305">
            <path
               d="m 0,0 5.807,-9.628 0,15.807 c 0,2.835 1.91,4.759 4.267,4.759 2.353,0 4.264,-1.911 4.264,-4.266 0,-0.473 -0.082,-0.934 -0.224,-1.362 l 0.002,0 -0.063,-0.162 -0.059,-0.155 -6.573,-17.296 2.654,-4.402 10.21,16.916 -0.002,0 c 1.183,1.87 1.873,4.086 1.873,6.461 0,6.673 -5.412,12.086 -12.082,12.086 C 3.4,18.758 -2.009,13.345 -2.009,6.672 -2.009,4.207 -1.269,1.912 0,0"
               id="path4307"
               style="fill:#f78e1e;fill-opacity:1;fill-rule:nonzero;stroke:none" />
          </g>
          <g
             transform="translate(493.0234,792.2909)"
             id="g4309">
            <path
               d="m 0,0 0,3.683 c -1.1,0.287 -1.868,0.379 -2.32,0.379 -4.636,0 -7.447,-1.898 -7.447,-6.809 l 0,-0.086 -0.025,0 0,-7.321 c 0,-0.249 10e-4,-0.465 0.009,-0.651 l 0,-4.297 4.845,0 0,8.593 0,3.287 0,0.604 0.009,0 C -4.873,-0.614 -3.586,0.35 -2.004,0.35 -1.085,0.35 0,0 0,0"
               id="path4311"
               style="fill:#696a6d;fill-opacity:1;fill-rule:nonzero;stroke:none" />
          </g>
          <g
             transform="translate(454.083,777.1035)"
             id="g4313">
            <path
               d="m 0,0 -8.28,0 0,26.09 8.313,0 c 5.113,0 7.526,-3.326 7.526,-6.49 0,-2.26 -1.108,-4.358 -3.246,-5.427 l 0,-0.04 C 7.203,13.457 9.259,10.928 9.259,7.836 9.259,4.117 6.567,0 0,0 m -1.153,22.053 -2.339,0 0,-6.811 2.853,0 c 1.706,0 3.406,1.386 3.406,3.445 0,1.978 -1.267,3.366 -3.92,3.366 m 0.911,-10.811 -3.25,0 0,-7.208 3.051,0 c 3.208,0 4.795,1.43 4.795,3.802 0,2.02 -1.666,3.406 -4.596,3.406"
               id="path4315"
               style="fill:#696a6d;fill-opacity:1;fill-rule:nonzero;stroke:none" />
          </g>
          <g
             transform="translate(441.519,777.1897)"
             id="g4317">
            <path
               d="m 0,0 c -0.322,-0.016 -0.652,-0.022 -0.983,-0.022 -4.634,0 -7.443,1.9 -7.443,6.807 l 0,19.244 4.827,0 0,-19.375 0.008,0 C -3.526,4.496 -1.974,3.618 -0.036,3.618 L 0,3.622 0,0 z"
               id="path4319"
               style="fill:#696a6d;fill-opacity:1;fill-rule:nonzero;stroke:none" />
          </g>
          <g
             transform="translate(544.3867,782.1389)"
             id="g4321">
            <path
               d="m 0,0 0,7.319 -0.027,0 0,0.087 c 0,4.91 -2.812,6.808 -7.445,6.808 l -0.373,-0.008 -1.29,0 0,-0.031 c -1.082,-0.036 -2.127,-0.143 -3.119,-0.317 l 0,-3.654 c 1.116,0.225 2.238,0.348 3.345,0.348 l 0,0.004 0.89,0 C -6.271,10.438 -4.92,9.54 -4.863,7.532 l 0.009,0 0,-0.603 -3.303,-0.122 c -4.792,-0.157 -7.842,-2.25 -7.842,-6.134 0,-3.686 2.695,-6.019 6.14,-6.019 2.494,0 4.196,0.951 5.424,2.057 l 0.793,-1.661 3.996,0 C 0.08,-4.082 0,-2.694 0,0 m -4.854,-0.417 c -0.638,-0.547 -1.701,-1.166 -3.344,-1.166 -1.98,0 -3.05,1.07 -3.05,2.613 0,1.581 1.151,2.453 3.719,2.532 l 2.675,0.078 0,-4.057 z"
               id="path4323"
               style="fill:#696a6d;fill-opacity:1;fill-rule:nonzero;stroke:none" />
          </g>
          <g
             transform="translate(507.8301,782.1389)"
             id="g4325">
            <path
               d="m 0,0 0,7.319 -0.026,0 0,0.087 c 0,4.91 -2.81,6.808 -7.446,6.808 l -0.37,-0.008 -1.294,0 0,-0.031 c -1.081,-0.036 -2.125,-0.143 -3.117,-0.317 l 0,-3.654 c 1.116,0.225 2.238,0.348 3.346,0.348 l 0,0.004 0.891,0 c 1.745,-0.118 3.097,-1.016 3.155,-3.024 l 0.008,0 0,-0.603 -3.304,-0.122 c -4.794,-0.157 -7.84,-2.25 -7.84,-6.134 0,-3.686 2.692,-6.019 6.141,-6.019 2.493,0 4.194,0.951 5.423,2.057 l 0.792,-1.661 4,0 C 0.082,-4.082 0,-2.694 0,0 m -4.853,-0.417 c -0.639,-0.547 -1.699,-1.166 -3.345,-1.166 -1.98,0 -3.049,1.07 -3.049,2.613 0,1.581 1.15,2.453 3.726,2.532 l 2.668,0.078 0,-4.057 z"
               id="path4327"
               style="fill:#696a6d;fill-opacity:1;fill-rule:nonzero;stroke:none" />
          </g>
          <g
             transform="translate(480.7505,782.1389)"
             id="g4329">
            <path
               d="m 0,0 0,7.319 -0.025,0 0,0.087 c 0,4.91 -2.813,6.808 -7.447,6.808 l -0.373,-0.008 -1.294,0 0,-0.031 c -1.079,-0.036 -2.119,-0.143 -3.111,-0.317 l 0,-3.654 c 1.11,0.225 2.236,0.348 3.342,0.348 l 0,0.004 0.889,0 c 1.75,-0.118 3.101,-1.016 3.157,-3.024 l 0.006,0 0,-0.603 -3.305,-0.122 c -4.789,-0.157 -7.841,-2.25 -7.841,-6.134 0,-3.686 2.698,-6.019 6.141,-6.019 2.496,0 4.199,0.951 5.425,2.057 l 0.793,-1.661 3.998,0 C 0.08,-4.082 0,-2.694 0,0 m -4.856,-0.417 c -0.634,-0.547 -1.7,-1.166 -3.341,-1.166 -1.982,0 -3.05,1.07 -3.05,2.613 0,1.581 1.149,2.453 3.723,2.532 l 2.668,0.078 0,-4.057 z"
               id="path4331"
               style="fill:#696a6d;fill-opacity:1;fill-rule:nonzero;stroke:none" />
          </g>
          <g
             transform="translate(430.8506,782.1389)"
             id="g4333">
            <path
               d="m 0,0 0,7.319 -0.026,0 0,0.087 c 0,4.91 -2.813,6.808 -7.447,6.808 l -0.373,-0.008 -1.291,0 0,-0.031 c -1.081,-0.036 -2.123,-0.143 -3.115,-0.317 l 0,-3.654 c 1.114,0.225 2.236,0.348 3.346,0.348 l 0,0.004 0.886,0 c 1.752,-0.118 3.101,-1.016 3.157,-3.024 l 0.007,0 0,-0.603 -3.306,-0.122 C -12.95,6.65 -16,4.557 -16,0.673 c 0,-3.686 2.695,-6.019 6.141,-6.019 2.496,0 4.196,0.951 5.423,2.057 l 0.791,-1.661 4,0 C 0.078,-4.082 0,-2.694 0,0 m -4.856,-0.417 c -0.635,-0.547 -1.699,-1.166 -3.341,-1.166 -1.982,0 -3.049,1.07 -3.049,2.613 0,1.581 1.15,2.453 3.723,2.532 l 2.667,0.078 0,-4.057 z"
               id="path4335"
               style="fill:#696a6d;fill-opacity:1;fill-rule:nonzero;stroke:none" />
          </g>
        </g>
      </g>
      <g
         transform="matrix(1.25,0,0,-1.25,331.42881,497.91777)"
         id="g4337">
        <path
           d="m 0,0 4.556,0 0,-14.67 7.153,7.806 5.748,0 -6.777,-7.099 7.318,-12.033 -5.395,0 -5.122,8.67 -2.925,-3.058 0,-5.612 -4.556,0 L 0,0 z"
           id="path4339"
           style="fill:#696a6d;fill-opacity:1;fill-rule:nonzero;stroke:none" />
      </g>
    </g>
  </g>
</svg>
