<?xml version="1.0" encoding="UTF-8" standalone="no"?>
<!-- Created with Inkscape (http://www.inkscape.org/) -->

<svg
   xmlns:dc="http://purl.org/dc/elements/1.1/"
   xmlns:cc="http://creativecommons.org/ns#"
   xmlns:rdf="http://www.w3.org/1999/02/22-rdf-syntax-ns#"
   xmlns:svg="http://www.w3.org/2000/svg"
   xmlns="http://www.w3.org/2000/svg"
   xmlns:sodipodi="http://sodipodi.sourceforge.net/DTD/sodipodi-0.dtd"
   xmlns:inkscape="http://www.inkscape.org/namespaces/inkscape"
   width="83.214203mm"
   height="38.807743mm"
   viewBox="0 0 294.85347 137.50775"
   id="svg16790"
   version="1.1"
   inkscape:version="0.91 r13725"
   sodipodi:docname="Al-Futtaim_Group_DL_logo.svg">
  <defs
     id="defs16792" />
  <sodipodi:namedview
     id="base"
     pagecolor="#ffffff"
     bordercolor="#666666"
     borderopacity="1.0"
     inkscape:pageopacity="0.0"
     inkscape:pageshadow="2"
     inkscape:zoom="1.887305"
     inkscape:cx="169.96064"
     inkscape:cy="65.121943"
     inkscape:document-units="px"
     inkscape:current-layer="layer1"
     showgrid="false"
     fit-margin-top="0"
     fit-margin-left="0"
     fit-margin-right="0"
     fit-margin-bottom="0"
     inkscape:window-width="1280"
     inkscape:window-height="737"
     inkscape:window-x="-4"
     inkscape:window-y="-4"
     inkscape:window-maximized="1" />
  <metadata
     id="metadata16795">
    <rdf:RDF>
      <cc:Work
         rdf:about="">
        <dc:format>image/svg+xml</dc:format>
        <dc:type
           rdf:resource="http://purl.org/dc/dcmitype/StillImage" />
        <dc:title></dc:title>
      </cc:Work>
    </rdf:RDF>
  </metadata>
  <g
     inkscape:label="Layer 1"
     inkscape:groupmode="layer"
     id="layer1"
     transform="translate(-175.84681,-366.24887)">
    <g
       transform="matrix(3.6954615,0,0,-3.6954615,115.23755,554.12946)"
       inkscape:label="al-futtaim-group"
       id="g17346">
      <g
         transform="translate(46.7139,20.3125)"
         id="g17348">
        <path
           inkscape:connector-curvature="0"
           id="path17350"
           style="fill:#2056ae;fill-opacity:1;fill-rule:nonzero;stroke:none"
           d="m 0,0 0,-1.211 -0.91,0 0,-3.641 -1.821,0 0,3.641 -0.911,0 0,-3.641 -1.82,0 0,3.641 -0.91,0 0,-3.641 -4.252,0 -0.609,1.209 0,2.432 -1.221,0 0,-3.641 -1.82,0 0,7.282 4.861,0 0,-1.209 -3.041,0 0,-1.221 3.041,0 0,-3.643 1.211,0 0,3.643 2.74,0 0,1.221 1.82,0 0,-1.221 0.911,0 0,1.221 1.821,0 L -0.91,0 0,0 Z m -14.876,-1.201 -1.82,0 0,-1.221 1.82,0 0,1.221 z m 22.469,3.631 -1.82,0 0,-1.209 1.82,0 0,1.209 z m 0,-7.282 0,4.852 -1.821,0.01 0,-4.862 1.821,0 z m 5.463,3.641 0,-3.641 -1.821,0 0,3.641 -0.911,0 0,-3.641 -1.821,0 0,4.852 6.684,0 0.599,-1.211 0,-3.641 -1.82,0 0,3.641 -0.91,0 z m -30.363,3.641 -1.821,0 0,-7.281 1.821,0 0,7.281 z m 19.128,-3.641 1.22,0 0,-2.432 -1.22,0 0,2.432 z M 4.862,-4.852 4.862,0 0.61,0 0,-1.211 l 0,-2.432 0.61,-1.209 4.252,0 z m -26.72,0 1.82,0 0,7.282 -3.341,0 -2.431,-7.282 1.821,0 0.91,2.42 1.221,0 0,-2.42 z m 0,6.073 0,-2.432 -0.92,0 0.92,2.432 z" />
      </g>
      <path
         inkscape:connector-curvature="0"
         id="path17352"
         style="fill:#2056ae;fill-opacity:1;fill-rule:nonzero;stroke:none"
         d="m 67.354,16.668 1.231,0 0,2.43 -1.231,0 0,-2.43 z m 3.039,3.645 0,-5.467 -0.611,-1.215 -4.251,0 0,1.215 3.054,0 0,0.607 -2.441,0 -0.613,1.215 0,2.43 0.61,1.215 4.252,0 z" />
      <g
         transform="translate(73.7441,17.2734)"
         id="g17354">
        <path
           inkscape:connector-curvature="0"
           id="path17356"
           style="fill:#2056ae;fill-opacity:1;fill-rule:nonzero;stroke:none"
           d="m 0,0 0,1.822 -0.912,0 0,-3.642 -1.822,0 0,4.859 3.951,0 L 1.826,1.826 1.826,0 0,0 Z" />
      </g>
      <g
         transform="translate(76.7998,15.4531)"
         id="g17358">
        <path
           inkscape:connector-curvature="0"
           id="path17360"
           style="fill:#2056ae;fill-opacity:1;fill-rule:nonzero;stroke:none"
           d="m 0,0 3.641,0 0.609,1.215 0,2.43 -0.609,1.214 -3.641,0 -0.61,-1.214 0,-2.43 L 0,0 Z m 1.213,3.645 1.215,0 0,-2.43 -1.215,0 0,2.43 z" />
      </g>
      <g
         transform="translate(82.2637,15.4531)"
         id="g17362">
        <path
           inkscape:connector-curvature="0"
           id="path17364"
           style="fill:#2056ae;fill-opacity:1;fill-rule:nonzero;stroke:none"
           d="m 0,0 -0.609,1.215 0,3.644 1.822,0 0,-3.644 0.911,0 0,3.644 1.822,0 L 3.946,0 0,0 Z" />
      </g>
      <path
         inkscape:connector-curvature="0"
         id="path17366"
         style="fill:#2056ae;fill-opacity:1;fill-rule:nonzero;stroke:none"
         d="m 89.879,19.098 -1.231,0 0,-2.43 1.231,0 0,2.43 z m 1.197,-3.645 -2.429,0 0,-1.822 -1.823,0 0,6.682 4.252,0 0.611,-1.215 0,-2.43 -0.611,-1.215 z" />
      <g
         transform="translate(56.2983,43.5659)"
         id="g17368">
        <path
           inkscape:connector-curvature="0"
           id="path17370"
           style="fill:#00adef;fill-opacity:1;fill-rule:nonzero;stroke:none"
           d="M 0,0 1.813,1.814 0,3.627 -1.813,1.814 0,0 M -1.822,-1.834 -3.638,-0.012 -5.469,-1.826 -7.293,-0.004 0,7.275 7.288,-0.012 5.471,-1.826 3.659,-0.012 1.827,-1.846 3.639,-3.658 1.827,-5.471 l -1.862,1.813 -1.787,-1.813 -1.827,1.807 1.827,1.83 z" />
      </g>
      <path
         inkscape:connector-curvature="0"
         id="path17372"
         style="fill:#2056ae;fill-opacity:1;fill-rule:nonzero;stroke:none"
         d="m 56.192,27.176 1.822,0 0,7.289 -1.822,0 0,-7.289 z" />
      <path
         inkscape:connector-curvature="0"
         id="path17374"
         style="fill:#2056ae;fill-opacity:1;fill-rule:nonzero;stroke:none"
         d="m 48.295,33.847 -1.822,0 0,-1.215 1.822,0 0,1.215 z" />
      <path
         inkscape:connector-curvature="0"
         id="path17376"
         style="fill:#2056ae;fill-opacity:1;fill-rule:nonzero;stroke:none"
         d="m 47.991,28.381 -1.215,0 0,2.43 1.215,0 0,-2.43 z m -24.907,-1.822 -1.215,0 0,2.43 1.215,0 0,-2.43 z m 30.375,1.832 -3.646,0 0,2.42 -0.607,1.214 -4.252,0 0,-3.644 -3.645,0 0,2.43 -0.608,1.214 -4.253,0 0,2.437 -1.822,0 0,-5.474 1.822,0 0,1.823 3.038,0 0,-2.43 -8.505,0 0,2.439 -1.822,0 0,-2.439 -4.253,0 0,0.607 -0.607,1.215 -4.253,0 0,-1.822 -3.645,0 0,-1.215 3.645,0 0,-0.607 0.607,-1.215 4.253,0 0,1.822 29.768,0.01 0.607,1.215 0,6.073 -1.822,0 0,-6.073 z" />
      <path
         inkscape:connector-curvature="0"
         id="path17378"
         style="fill:#2056ae;fill-opacity:1;fill-rule:nonzero;stroke:none"
         d="m 30.374,25.344 1.822,0 0,1.215 -1.822,0 0,-1.215 z" />
      <path
         inkscape:connector-curvature="0"
         id="path17380"
         style="fill:#2056ae;fill-opacity:1;fill-rule:nonzero;stroke:none"
         d="m 27.944,25.344 1.822,0 0,1.215 -1.822,0 0,-1.215 z" />
      <path
         inkscape:connector-curvature="0"
         id="path17382"
         style="fill:#2056ae;fill-opacity:1;fill-rule:nonzero;stroke:none"
         d="m 93.15,26.559 1.215,0 0,2.43 -1.215,0 0,-2.43 z m -1.821,0.607 -1.215,0 0,1.215 1.215,0 0,1.822 4.253,0 0.607,-1.215 0,-3.644 -4.252,0 -0.608,1.215 0,0.607 z" />
      <path
         inkscape:connector-curvature="0"
         id="path17384"
         style="fill:#2056ae;fill-opacity:1;fill-rule:nonzero;stroke:none"
         d="m 80.508,26.559 1.216,0 0,2.43 -1.216,0 0,-2.43 z m -1.822,0.607 -2.768,0 0,1.215 2.768,0 0,1.822 4.252,0 0.608,-1.215 0,-3.644 -4.253,0 -0.607,1.215 0,0.607 z" />
      <path
         inkscape:connector-curvature="0"
         id="path17386"
         style="fill:#2056ae;fill-opacity:1;fill-rule:nonzero;stroke:none"
         d="m 74.197,28.381 1.215,0 0,1.215 -1.215,0 0,-1.215 z m 2.431,-3.645 -4.253,0 0,1.215 3.037,0 0,1.215 -3.037,0 0,2.43 0.607,1.215 4.253,0 0,-4.86 -0.607,-1.215 z" />
      <path
         inkscape:connector-curvature="0"
         id="path17388"
         style="fill:#2056ae;fill-opacity:1;fill-rule:nonzero;stroke:none"
         d="m 62.743,30.203 1.215,0 0,1.215 -1.215,0 0,-1.215 z m 1.215,-1.215 -3.037,0 0,2.43 0.607,1.214 4.253,0 0,-4.251 1.519,0 0,-1.215 -3.342,0 0,1.822 z" />
      <path
         inkscape:connector-curvature="0"
         id="path17390"
         style="fill:#2056ae;fill-opacity:1;fill-rule:nonzero;stroke:none"
         d="m 85.378,25.344 1.822,0 0,1.215 -1.822,0 0,-1.215 z" />
      <g
         transform="translate(89.8789,28.3809)"
         id="g17392">
        <path
           inkscape:connector-curvature="0"
           id="path17394"
           style="fill:#2056ae;fill-opacity:1;fill-rule:nonzero;stroke:none"
           d="m 0,0 0,2.43 -0.608,1.215 -4.275,0 0,-1.215 3.06,0 0,-2.43 -5.895,0 0,-1.215 9.721,0 L 2.003,0 0,0 Z" />
      </g>
      <g
         transform="translate(71.4844,32.0254)"
         id="g17396">
        <path
           inkscape:connector-curvature="0"
           id="path17398"
           style="fill:#2056ae;fill-opacity:1;fill-rule:nonzero;stroke:none"
           d="m 0,0 -3.646,0 -0.607,-1.215 0,-2.43 -1.991,0 0,-1.214 6.244,0 0,1.214 -2.431,0 0,2.43 2.431,0 L 0,0 Z" />
      </g>
      <path
         inkscape:connector-curvature="0"
         id="path17400"
         style="fill:#2056ae;fill-opacity:1;fill-rule:nonzero;stroke:none"
         d="m 61.528,33.24 1.822,0 0,1.217 -1.822,0 0,-1.217 z" />
      <path
         inkscape:connector-curvature="0"
         id="path17402"
         style="fill:#2056ae;fill-opacity:1;fill-rule:nonzero;stroke:none"
         d="m 63.958,33.24 1.823,0 0,1.217 -1.823,0 0,-1.217 z" />
    </g>
  </g>
</svg>
