<svg width="79" height="28" viewBox="0 0 79 28" fill="none" xmlns="http://www.w3.org/2000/svg">
<path d="M76.7531 14.0558L72.2409 11.4312V6.21539C72.2409 4.72995 71.4479 3.3562 70.1635 2.61907L66.5784 0.552852C65.294 -0.184284 63.7192 -0.184284 62.4348 0.552852L58.8384 2.63024C57.554 3.36737 56.7722 4.74112 56.7611 6.21539V11.4424L52.2265 14.0558C50.9421 14.793 50.1603 16.1667 50.1492 17.641V21.7846C50.1492 23.27 50.9421 24.6326 52.2265 25.3698L55.8117 27.4471C57.0961 28.1843 58.6709 28.1843 59.9553 27.4471L64.4786 24.8337L69.002 27.4471C70.2864 28.1843 71.8612 28.1843 73.1456 27.4471L76.7531 25.3809C78.0375 24.6438 78.8193 23.27 78.8304 21.7958V17.6522C78.8304 16.1667 78.0375 14.793 76.7531 14.0558ZM59.0283 6.22656C59.0283 5.55644 59.3857 4.93099 59.9665 4.59593L63.5628 2.51855C64.1436 2.18349 64.8695 2.18349 65.4503 2.51855L69.0466 4.59593C69.6274 4.93099 69.9848 5.55644 69.9848 6.22656V10.1468L66.8799 8.35979C65.4056 7.51097 63.5963 7.51097 62.122 8.35979L59.0283 10.1468V6.22656ZM58.8384 25.4926C58.2577 25.8277 57.5317 25.8277 56.9509 25.4926L53.3658 23.4152C52.785 23.0802 52.4164 22.4547 52.4164 21.7846V17.641C52.4164 16.9709 52.7738 16.3454 53.3546 16.0104L56.7611 14.0447V17.641C56.7611 19.3386 57.6657 20.9134 59.1288 21.7734L62.2114 23.5493L58.8384 25.4926ZM64.501 22.2425L60.2792 19.8077C59.5086 19.361 59.0283 18.5345 59.0283 17.641V12.7491L63.2501 10.3143C64.0207 9.86757 64.9812 9.86757 65.7519 10.3143L69.9737 12.7491V17.6298C69.9737 18.5233 69.4934 19.3498 68.7228 19.7966L64.501 22.2425ZM76.5855 21.7846C76.5855 22.4547 76.2281 23.0802 75.6362 23.4152L72.0399 25.4926C71.4591 25.8277 70.7331 25.8277 70.1523 25.4926L66.7682 23.5381L69.862 21.7734C71.3362 20.9246 72.2409 19.3498 72.2409 17.6522V14.0447L75.6474 16.0104C76.2281 16.3454 76.5967 16.9709 76.5967 17.641L76.5855 21.7846Z" fill="#150FE0"/>
<path d="M12.812 15.0052C12.812 15.3067 13.0577 15.5524 13.3593 15.5524C13.6608 15.5524 13.9065 15.3067 13.9065 15.0052C13.9065 14.7036 13.6608 14.4579 13.3593 14.4579C13.0577 14.4579 12.8232 14.7036 12.812 15.0052Z" fill="#150FE0"/>
<path d="M24.1036 8.6167H23.1543V13.6426H24.1036V8.6167Z" fill="#150FE0"/>
<path d="M5.99909 13.6426V10.7946H5.54118C4.97157 10.7946 4.64768 11.2637 4.64768 11.8109V13.6314H2.15705C1.65446 13.6538 1.16304 13.4527 0.805638 13.1065C0.481745 12.7491 0.303046 12.2912 0.314215 11.8109C0.303046 11.3307 0.481745 10.8727 0.805638 10.5265L1.4981 11.1073C1.34174 11.3083 1.26356 11.5652 1.26356 11.8109C1.25239 12.0678 1.34174 12.3247 1.4981 12.5257C1.65446 12.7268 1.90017 12.8384 2.15705 12.8273H3.69834V11.7997C3.66483 10.8281 4.43547 10.0128 5.40715 9.97925C5.45183 9.97925 5.4965 9.97925 5.54118 9.97925H6.94844V12.8273H10.2767C10.232 12.6932 10.1985 12.5481 10.1985 12.4029V11.7997C10.2097 11.5429 10.1204 11.2972 9.96399 11.0961C9.65127 10.7276 9.104 10.694 8.73543 11.0068C8.70193 11.0403 8.66842 11.0626 8.64608 11.0961L7.95362 10.5265C8.71309 9.80055 9.90815 9.80055 10.6676 10.5265C10.9915 10.8727 11.1702 11.3307 11.159 11.8109V12.5034C11.159 12.6821 11.3042 12.8273 11.4829 12.8273H14.1188C14.0741 12.6932 14.0406 12.5481 14.0406 12.4029V11.7997C14.0406 11.5429 13.9624 11.2972 13.806 11.0961C13.4933 10.7276 12.946 10.694 12.5775 11.0068C12.544 11.0403 12.5105 11.0626 12.4881 11.0961L11.7957 10.5265C12.5551 9.80055 13.7502 9.80055 14.5097 10.5265C14.8336 10.8727 15.0123 11.3307 15.0011 11.8109V12.5034C15.0011 12.6821 15.1463 12.8273 15.325 12.8273H15.5595V13.6426H5.99909Z" fill="#150FE0"/>
<path d="M2.68194 15.0052C2.68194 14.7036 2.43623 14.4579 2.13467 14.4579C1.83312 14.4579 1.5874 14.7036 1.5874 15.0052C1.5874 15.3067 1.83312 15.5524 2.13467 15.5524C2.43623 15.5524 2.68194 15.3067 2.68194 15.0052Z" fill="#150FE0"/>
<path d="M27.8898 9.82287C28.1914 9.82287 28.4371 9.57716 28.4482 9.2756C28.4482 8.97404 28.2025 8.72833 27.901 8.71716C27.5994 8.71716 27.3537 8.96287 27.3425 9.26443C27.3425 9.57715 27.5882 9.82287 27.8898 9.82287Z" fill="#150FE0"/>
<path d="M3.70962 14.4579C3.40806 14.4579 3.16235 14.7036 3.16235 15.0052C3.16235 15.3067 3.40806 15.5524 3.70962 15.5524C4.01118 15.5524 4.25689 15.3067 4.25689 15.0052C4.25689 14.7036 4.02234 14.4579 3.70962 14.4579Z" fill="#150FE0"/>
<path d="M29.9783 9.97929C29.0066 9.93462 28.1802 10.6941 28.1355 11.6658C28.1355 11.7104 28.1355 11.7551 28.1355 11.7998C28.1355 12.1572 28.2248 12.5146 28.4147 12.8161H27.1638C26.9069 12.8273 26.6612 12.7156 26.5049 12.5146C26.3485 12.3136 26.2703 12.0567 26.2703 11.7998C26.2703 11.5429 26.3485 11.2972 26.5049 11.0962L25.8236 10.5266C25.1646 11.2637 25.1646 12.3694 25.8236 13.1065C26.181 13.4639 26.6724 13.665 27.175 13.6538H29.9895C31.0059 13.6538 31.8212 12.8385 31.8212 11.8221C31.8212 10.8058 30.9835 9.97929 29.9783 9.97929ZM29.9783 12.8273C29.4087 12.8273 29.0848 12.3582 29.0848 11.811C29.0848 11.2637 29.3864 10.7946 29.9783 10.7946C30.4809 10.7946 30.8942 11.1967 30.8942 11.6993C30.8942 11.7328 30.8942 11.7663 30.8942 11.7998C30.8942 12.3471 30.5703 12.8161 30.0007 12.8161" fill="#150FE0"/>
<path d="M42.8335 9.97929C41.8619 9.93462 41.0354 10.6941 40.9907 11.6658C40.9907 11.7104 40.9907 11.7551 40.9907 11.7998C40.9907 12.1572 41.0801 12.5146 41.2699 12.8161H40.0525C39.9743 12.8161 39.9073 12.7826 39.8738 12.7045C39.9967 12.4699 40.0637 12.213 40.0749 11.945C40.1084 10.9621 39.3377 10.1468 38.3549 10.1245C38.3102 10.1245 38.2655 10.1245 38.2209 10.1245C37.3162 10.1357 36.4785 10.5712 35.9424 11.2972V10.4149H35.0601V12.8273H34.0214C33.8651 12.8273 33.8204 12.7045 33.8204 12.5481V10.3144H32.871V13.3858C32.871 13.933 32.5471 14.4021 31.9775 14.4021V15.2174C32.9492 15.2621 33.7757 14.5026 33.8204 13.5309C33.8204 13.5086 33.8204 13.4863 33.8204 13.4528C33.9097 13.5756 34.0549 13.6426 34.2001 13.6426H38.5112C38.8798 13.6315 39.2372 13.4863 39.5053 13.2182C39.6505 13.4863 39.9297 13.6426 40.2312 13.6426H42.8335C43.8499 13.6426 44.6652 12.8273 44.6652 11.811C44.6652 10.7946 43.8387 9.97929 42.8335 9.97929ZM38.2209 12.8273H36.0765C36.5009 11.7998 37.2939 10.951 38.232 10.951C38.8016 10.951 39.1255 11.4201 39.1255 11.9673C39.159 12.4141 38.8351 12.805 38.3884 12.8385C38.3325 12.8385 38.2767 12.8385 38.2209 12.8273ZM42.8224 12.8273C42.2528 12.8273 41.9289 12.3582 41.9289 11.811C41.9289 11.2637 42.2528 10.7946 42.8224 10.7946C43.325 10.7946 43.7382 11.1967 43.7382 11.6993C43.7382 11.7328 43.7382 11.7663 43.7382 11.7998C43.7382 12.3582 43.4031 12.8273 42.8224 12.8273Z" fill="#150FE0"/>
<path d="M17.6815 8.6167H16.7322V13.6426H17.6815V8.6167Z" fill="#150FE0"/>
<path d="M21.3673 12.2689C21.3673 12.6598 21.1774 12.8273 20.8982 12.8273H20.094C19.9377 12.8273 19.893 12.7045 19.893 12.5481V10.3143H18.9437V13.3857C18.9437 13.933 18.6198 14.4021 18.0278 14.4021V15.2174C18.9995 15.2621 19.826 14.5138 19.8707 13.5309C19.8707 13.4974 19.8707 13.4751 19.8707 13.4416C19.96 13.5644 20.1052 13.6315 20.2504 13.6315H21.021C21.8587 13.6315 22.2608 13.1065 22.2608 12.3024V8.59436H21.3449L21.3673 12.2689Z" fill="#150FE0"/>
<path d="M26.3262 22.2537V16.6693H27.2755V18.7914C27.4207 18.6685 27.5882 18.5792 27.7669 18.5122C27.9345 18.4563 28.102 18.4228 28.2807 18.434C28.8391 18.4228 29.3641 18.6685 29.7326 19.0818C30.0565 19.4392 30.2352 19.9194 30.2352 20.4108C30.2464 20.9693 30.0119 21.5165 29.5874 21.8851C29.23 22.2202 28.761 22.3989 28.2807 22.3989C28.102 22.3989 27.9345 22.3765 27.7669 22.3207C27.5882 22.2537 27.4319 22.1532 27.2755 22.0415V22.276L26.3262 22.2537ZM28.2584 19.2828C27.968 19.2716 27.6888 19.4056 27.5101 19.6402C27.1638 20.1316 27.1862 20.7906 27.5771 21.2485C27.9791 21.6282 28.6046 21.6059 28.9843 21.2038C28.9955 21.1926 29.0067 21.1815 29.0178 21.1703C29.1854 20.9581 29.2747 20.6789 29.2635 20.4108C29.2859 20.0981 29.1742 19.7966 28.962 19.5732C28.7833 19.3833 28.5376 19.2828 28.2807 19.294" fill="#150FE0"/>
<path d="M34.6246 22.2537H33.6753V22.0191C33.5301 22.1308 33.3626 22.2313 33.1839 22.2983C33.0163 22.3542 32.8488 22.3877 32.6701 22.3765C32.1117 22.3877 31.5756 22.1532 31.2182 21.7287C30.5034 20.9134 30.5592 19.6625 31.3522 18.9254C31.7096 18.6015 32.1787 18.4228 32.6701 18.434C32.8488 18.434 33.0163 18.4563 33.1839 18.5121C33.3626 18.5792 33.5189 18.6685 33.6753 18.7914V18.5568H34.6246V22.2537ZM32.7036 19.2828C32.4132 19.2716 32.1228 19.4056 31.9441 19.6402C31.7766 19.8636 31.6873 20.1316 31.6984 20.3997C31.6873 20.7124 31.7989 21.0251 32.0223 21.2485C32.201 21.4272 32.4579 21.5277 32.7036 21.5165C32.994 21.5277 33.2732 21.3937 33.4519 21.1591C33.6195 20.9469 33.7088 20.6677 33.6976 20.3997C33.72 20.0869 33.6083 19.7854 33.3961 19.562C33.2174 19.3721 32.9717 19.2716 32.7036 19.2828Z" fill="#150FE0"/>
<path d="M36.5568 18.7244C36.6796 18.6239 36.8136 18.5345 36.97 18.4787C37.1152 18.4228 37.2716 18.4005 37.4279 18.4005C37.6401 18.4005 37.8635 18.4452 38.0645 18.5345C38.2656 18.6127 38.4443 18.7467 38.5895 18.9031C38.891 19.2828 39.0362 19.7631 38.9915 20.2545V22.2537H38.031V20.3104C38.0645 20.02 37.9975 19.7296 37.8523 19.4727C37.7295 19.3387 37.5396 19.2605 37.3609 19.2717C37.1264 19.2605 36.903 19.3499 36.7578 19.5286C36.6126 19.7854 36.5456 20.087 36.5791 20.3774V22.2426H35.6074V18.5345H36.5679L36.5568 18.7244Z" fill="#150FE0"/>
<path d="M41.9064 20.0981L43.6152 22.2537H42.4425L41.2586 20.7347L40.9012 21.081V22.2537H39.9519V16.6693H40.9012V19.8636L42.2527 18.5457H43.5147L41.9064 20.0981Z" fill="#150FE0"/>
<path d="M5.29547 22.2537H4.33496V22.0191C4.18977 22.1308 4.02224 22.2313 3.84354 22.2983C3.67601 22.3542 3.50848 22.3877 3.32978 22.3765C2.77134 22.3877 2.24641 22.142 1.87784 21.7287C1.16304 20.9134 1.21889 19.6737 2.01187 18.9254C2.36927 18.6015 2.83835 18.4228 3.32978 18.434C3.50848 18.434 3.67601 18.4563 3.84354 18.5121C4.02224 18.5792 4.1786 18.6685 4.33496 18.7914V18.5568H5.29547V22.2537ZM3.35211 19.2828C3.05056 19.2716 2.77134 19.4056 2.59264 19.6402C2.42511 19.8524 2.33576 20.1316 2.34693 20.3997C2.32459 20.7124 2.43628 21.0139 2.64848 21.2485C2.82718 21.4272 3.08406 21.5277 3.32978 21.5165C3.63133 21.5277 3.92172 21.3937 4.10042 21.1591C4.26795 20.9358 4.3573 20.6677 4.34613 20.3997C4.36847 20.0869 4.25678 19.7854 4.04457 19.562C3.86587 19.3721 3.62016 19.2716 3.35211 19.2828Z" fill="#150FE0"/>
<path d="M7.21643 16.6693H6.26709V22.2537H7.21643V16.6693Z" fill="#150FE0"/>
<path d="M14.5319 22.2537H13.5714V22.0191C13.4262 22.1308 13.2587 22.2313 13.08 22.2983C12.9125 22.3542 12.7449 22.3877 12.5662 22.3765C12.019 22.3877 11.494 22.142 11.1366 21.7287C10.4218 20.9134 10.4777 19.6737 11.2707 18.9254C11.6281 18.6015 12.0971 18.4228 12.5774 18.434C12.7561 18.434 12.9236 18.4563 13.0912 18.5121C13.2699 18.5792 13.4262 18.6685 13.5826 18.7914V18.5568H14.5319V22.2537ZM12.5997 19.2828C12.2982 19.2716 12.019 19.4056 11.8403 19.6402C11.6727 19.8636 11.5834 20.1316 11.5945 20.3997C11.5834 20.7124 11.6951 21.0251 11.9184 21.2485C12.0971 21.4272 12.354 21.5277 12.5997 21.5165C12.8901 21.5277 13.1693 21.3937 13.348 21.1591C13.5156 20.9469 13.6049 20.6677 13.5937 20.3997C13.6161 20.0869 13.5044 19.7854 13.2922 19.562C13.1135 19.3721 12.8566 19.2716 12.5997 19.2828Z" fill="#150FE0"/>
<path d="M16.0621 16.6917C16.2185 16.6917 16.3748 16.7475 16.4865 16.8704C16.5982 16.982 16.6652 17.1272 16.6652 17.2836C16.6652 17.44 16.6094 17.5963 16.4865 17.708C16.3748 17.8197 16.2185 17.8755 16.0621 17.8755C15.9057 17.8755 15.7494 17.8197 15.6377 17.708C15.526 17.5963 15.459 17.44 15.459 17.2836C15.459 17.1272 15.526 16.982 15.6377 16.8704C15.7494 16.7475 15.8946 16.6917 16.0621 16.6917Z" fill="#150FE0"/>
<path d="M18.4747 18.7244C18.5975 18.6239 18.7315 18.5345 18.8879 18.4787C19.0331 18.434 19.1895 18.4117 19.3458 18.4229C19.558 18.4229 19.7814 18.4675 19.9824 18.5569C20.1835 18.6351 20.3622 18.7691 20.5074 18.9255C20.8089 19.3052 20.9541 19.7854 20.9095 20.2769V22.2761H19.9601V20.3439C19.9936 20.0535 19.9266 19.7631 19.7814 19.5062C19.6586 19.3722 19.4687 19.294 19.29 19.3052C19.0554 19.294 18.8321 19.3834 18.6869 19.5621C18.5417 19.819 18.4747 20.1205 18.5082 20.4109V22.2761H17.5142V16.6805H18.4747V18.7244Z" fill="#150FE0"/>
<path d="M22.339 16.6917C22.4953 16.6917 22.6517 16.7475 22.7634 16.8704C22.8751 16.982 22.9421 17.1272 22.9421 17.2836C22.9421 17.44 22.8751 17.5963 22.7634 17.708C22.6517 17.8197 22.4953 17.8755 22.339 17.8755C22.1826 17.8755 22.0262 17.8197 21.9145 17.708C21.8029 17.5963 21.7358 17.44 21.7358 17.2836C21.7358 17.1272 21.7917 16.982 21.9145 16.8704C22.0374 16.7475 22.1826 16.6917 22.339 16.6917ZM22.8192 22.2537H21.8699V18.5457H22.8192V22.2537Z" fill="#150FE0"/>
<path d="M8.13232 20.0199V22.2648H9.08167V19.9753C9.08167 19.4727 9.34972 19.3163 9.76296 19.3163H10.2991V18.4786H9.72945C8.65725 18.4786 8.13232 19.0594 8.13232 20.0199Z" fill="#150FE0"/>
<path d="M16.5312 18.5457H15.5819V22.3765C15.5819 22.935 15.258 23.4152 14.666 23.4152V24.2417C15.6712 24.264 16.5089 23.4599 16.5312 22.4547C16.5312 22.4435 16.5312 22.4324 16.5312 22.41V18.5457Z" fill="#150FE0"/>
</svg>
