<svg xmlns="http://www.w3.org/2000/svg" width="512" height="512" viewBox="0 0 512 512"><path fill="#006838" d="M512 472c0 22.1-17.9 40-40 40H40c-22.1 0-40-17.9-40-40V40C0 17.9 17.9 0 40 0h432c22.1 0 40 17.9 40 40v432z"/><path fill-rule="evenodd" clip-rule="evenodd" fill="#43A813" d="M245.1 62c64-5.3 117.1 23.1 148 54 28.9 28.9 54 73.8 57.6 126.9 4.6 68.6-27.6 127.7-70.5 163.3-43.2 35.8-109.8 57.2-180.9 36.4-84.6-24.8-146.6-104.8-137.5-209.1C66.5 180.2 90 145 120.5 116c30.2-28.6 68.3-49.4 124.6-54z"/><path fill-rule="evenodd" clip-rule="evenodd" fill="#EAEA34" d="M90 188.8c-4.7 33.2 15.4 65.5 38.8 78.7-5-23.1-1.1-49 5.9-67-10.8-22.3-.8-57.8 4.7-74-17.5 11.7-46.3 40.6-49.4 62.3zM422.4 188.8c-3-19.3-35.2-54.8-50.5-61.1 4.8 12.6 9.7 25.6 10.6 38.8.8 12-5.4 23.4-4.7 36.4.3 5.5 4.6 11.6 5.9 17.6 3.6 16.7 2.5 31.8-1.2 47 21.1-6.8 44.9-46.9 39.9-78.7zM131.1 271c14.3 13.8 50.4 30.7 54.1 30.5v-11.7c12.3-1.6 23.5 2.7 30.5-3.5-3-1.3-2.8-5.8-7.1-5.9-1.9 1.7-4.1 9.1-7.1 5.9 2-1.5 3.2-3.9 3.5-7-25.8-7.7-55-41.7-67-61.1-5.5 14.3-8 31.8-6.9 52.8z"/><path fill-rule="evenodd" clip-rule="evenodd" fill="#EAEA34" d="M296.8 281.6c-.6 3.7 2.7 4.8-1.2 5.9-6.2 1.5-6-3.4-11.8-2.4 9.2 9.3 30.8.3 42.3 5.9v10.6c21.2-6.6 37-18.6 54-29.4 2.6-19.2.8-42.7-8.3-54-14.8 31.3-38.1 54.1-75 63.4zM131.4 310.1c-4.5-7.8-12-17.1-9.2-36.3-17.2-12.6-28.3-30.6-41.6-59.8-14.2 46.7 16.3 83.4 50.8 96.1zM394.3 269.9c.2 19.4-9.3 29.1-16.5 41.1 32.9-10.2 71.7-48.6 51.7-91.6-9.1 19.5-18.3 38.9-35.2 50.5z"/><path fill-rule="evenodd" clip-rule="evenodd" fill="#EAEA34" d="M165.2 321.5c2.8.5 11.9 3.7 18.8 4.7-1.2-8 2.4-14.3 0-20-3.6.8-43.1-19.5-57.6-29.4-3.5 26.8 14.4 42.1 38.8 44.7zM326.1 308.6c-.5 6.8.5 12 1.1 17.6 31.3-4.3 58.8-12.4 59.9-47-18.9 6.6-39.7 21.3-61 29.4zM135.8 342.7c-6.8-7.3-13.6-14.6-14.1-28.2-18.9-7.7-29.6-23.7-44.6-35.2 0 39.9 25.3 60.8 58.7 63.4zM434.2 281.6c-.3-.9-1-1.4-2.3-1.2-12.2 14-25.6 26.9-43.5 35.2 2.1 16.2-9.1 19.1-12.9 29.4 33.6-7 58.4-23 58.7-63.4z"/><path fill-rule="evenodd" clip-rule="evenodd" fill="#43A813" d="M226.3 287.5c-2.8.7-8.5-1.5-9.4 1.1 2.3 2.2 7.2.4 9.4-1.1z"/><path fill-rule="evenodd" clip-rule="evenodd" fill="#EAEA34" d="M184 350.9v-18.8c-19.8-1.2-36-9.2-55.2-14.1-5.5 29.9 31.1 32.4 55.2 32.9zM327.3 332.1c-2.4 4.2-.6 12.7-1.1 18.8 27.7-1.8 57.6.2 57.5-31.7-16.1 2.3-35.8 11.1-56.4 12.9zM117 373.2c12.1.7 26.8 4.1 38.8 1.2-8.6-9-23.7-11.6-28.2-24.7-14.9-2-22.8-10.9-35.2-15.3 6 15.2 14.6 27.7 24.6 38.8zM394.3 373.2c9.5-10.8 17.8-22.9 24.6-36.4-.1-1.4-.4-2.8-2.3-2.4-9 7.8-20.5 13.1-34.1 16.4-5 12.2-18.5 16-28.2 23.5 12.7 2.7 28 .7 40-1.1z"/><path fill-rule="evenodd" clip-rule="evenodd" fill="#EAEA34" d="M184 370.9c0-8.4-3.3-7.6 1.2-12.9-13 1.4-30.2-3.2-47-4.7 7.2 15.5 25.5 24.8 45.8 17.6zM327.3 356.8c-2.2 2.9-.8 9.4-1.1 14.1 20.1 7.1 39.9-3 47-16.4-11.7-.7-32.6 4.5-45.9 2.3zM184 378c-17.8 3.4-31.8 5.6-55.2 4.7 9.9 19.2 41 14.4 56.4 3.5.9-4.1-1.8-4.6-1.2-8.2z"/><path fill-rule="evenodd" clip-rule="evenodd" fill="#43A813" d="M326.1 383.8c12.3 16.2 46.8 16.2 57.5-1.2-21.6.9-39.7-1.9-57.5-4.7v5.9z"/><path fill-rule="evenodd" clip-rule="evenodd" fill="#FFF" d="M191 295.7c-1.8 8.2 7.3 11.4 11.8 14.1 18.5 11.1 28.5 25.5 41.1 41.1 9.1-1.8 14.1-.6 24.7-1.2 8.4-9.8 14-20.5 23.5-29.4 8.6-8 23.2-10.2 28.2-22.3-45.2-6-90.3-2-129.3-2.3z"/><path fill-rule="evenodd" clip-rule="evenodd" fill="#FFF" d="M285 335.7c13 4 25.5 14.7 35.2 18v-46.8c-15.5 5.7-27.9 14.7-35.2 28.8zM191 356.8c11.3-6.7 22.4-13.6 35.3-18.8-8-12.3-20.7-26.3-36.4-27 2.4 12-2.7 32.5 1.1 45.8zM228.6 342.7c-15 10-40.8 9.3-38.8 36.4 40.7 2 89.6 2 130.4 0 1.6-27-22.6-28.3-39.9-36.4-5 16.6-23.1 11.2-37.6 12.9-6.6-2.4-7.6-10.4-14.1-12.9zM281.5 245.2c-4.9-5.3-13.8-6.5-16.5-14.1 17.3-12.4 40-30.6 70.5-22.3-24.7-23.8-60.5 6.6-79.9 17.6-18.5-9.9-61.2-43.8-79.9-18.8 29.1-5.7 53.9 11.4 70.5 25.8-5.9 4.3-11.9 8.5-18.8 11.8-4.4-.8-11.1-12.5-14.1-3.5 13.8-2.4 16.7 20.3 30.5 17.6-.7-6.4-9.4.2-9.4-8.2 7.9-3.9 13.7-9.8 22.3-12.9 9.2 6.4 29.4 15.6 9.4 22.3 9.1 3.4 17.2-13.9 25.9-18.8 1.7 1.9 6.7 1.7 5.9-2.4-6.6-3.4-9 6.4-16.4 5.9z"/><path fill-rule="evenodd" clip-rule="evenodd" fill="#FFF" d="M221.6 249.9c-3.6 6.7-17.2 5.2-21.1 8.2 7.4 6.2 24 2.5 27-5.9-2.3-.4-2.2-3.3-5.9-2.3zM282.6 254.6c3.3 5.7 21.3 11.5 27 3.5-11.9.9-16-6-24.7-8.2.1 2.3-3.1 1.5-2.3 4.7zM248.6 85.5c-3.7-4.4-11.2-3.6-17.6-2.3-.6 4.9 8.1.4 7 5.9-21.9.8-36.8 8.6-47 21.1 11.5-2.3 22.9-10.8 36.4-7-17.4 8-31.2 19.7-36.4 39.9 10.5-4.8 21.1-25.9 37.6-24.7-11 9-14.1 25.9-17.6 42.3 9.8-10.1 12.6-27.3 27-32.9-2.6 10-7.4 32.2 0 41.1 2.2-14.2 2.6-30.3 12.9-36.4 1 27.4-2.3 46.8 1.2 72.8-.2 3.3-5.6 1.5-4.7 5.9 6.3.9 10-2 14.1 0 .9-4.8-5.6-2.2-4.7-7.1 5.5-22.9-.4-45.7 4.7-71.7 7.9 8.2 9.2 22.9 10.6 37.6 8.7-9.4 1.8-31 2.3-41.1 12.4 7.1 16.5 22.7 24.7 34.1 1.2-21.9-9.1-32.4-16.4-45.8 17.9 5.2 27 19.2 38.7 30.5-3.7-23.3-21-33-36.4-44.6 15.7-2.4 24.2 8.6 35.2 7-10.3-11.9-26.8-17.8-45.8-21.1.1-3.4 5-2 4.7-5.9-6.9-.7-11.4 1.1-16.5 2.3-3-2.5-2.6-8.4-8.2-8.2-1.7 2.9-2.3 7-5.8 8.3z"/></svg>