<svg xmlns="http://www.w3.org/2000/svg" xmlns:xlink="http://www.w3.org/1999/xlink" width="251.617" height="302.544" viewBox="0 0 251.617 302.544">
  <defs>
    <linearGradient id="linear-gradient" y1="0.5" x2="1" y2="0.5" gradientUnits="objectBoundingBox">
      <stop offset="0.2" stop-color="#009bba"/>
      <stop offset="0.49" stop-color="#243269"/>
      <stop offset="1" stop-color="#dc2027"/>
    </linearGradient>
  </defs>
  <g id="NA_Guideline-06" data-name="NA Guideline-06" transform="translate(-20.43 -50.65)">
    <ellipse id="Ellipse_1" data-name="Ellipse 1" cx="2.401" cy="2.323" rx="2.401" ry="2.323" transform="translate(26.793 281.149)" fill="#222753"/>
    <path id="Path_407" data-name="Path 407" d="M44.186,276.2h6.4a7.075,7.075,0,0,0,5.777-2.362c1.269,1.61,3.26,2.362,5.768,2.362H83.691c5.426,0,8.129-2.586,8.129-7.9s-3.377-8.783-8.129-8.783c-4.089,0-7.983,2.137-10.989,6.636V251.24H68.467v20.806H62.436c-2.772,0-3.9-1.5-3.9-4.655v-7.31H54.17v7.309c0,3.152-1.161,4.655-3.9,4.655H35.94V276.2h3.591c-.332,2.547-3.777,3.708-7.3,3.708-5.211,0-7.69-2.928-7.69-6.412a9.378,9.378,0,0,1,1.327-4.528l-3.416-1.239a11.34,11.34,0,0,0-1.9,6.256c0,5.66,3.777,9.759,11.281,9.759s11.652-3.113,11.955-7.534Zm39.036-12.6c2.7,0,4.235,1.5,4.235,4.431,0,2.772-.976,4.011-4.2,4.011H72.927c2.625-5.25,6.617-8.442,10.345-8.442Z" transform="translate(-0.003 -4.833)" fill="#222753"/>
    <path id="Path_408" data-name="Path 408" d="M37.271,289.159a2.4,2.4,0,1,0-2.43,2.323,2.362,2.362,0,0,0,2.43-2.323Z" transform="translate(-0.29 -5.687)" fill="#222753"/>
    <path id="Path_409" data-name="Path 409" d="M57.271,257.154a2.342,2.342,0,1,0-2.4-2.323A2.391,2.391,0,0,0,57.271,257.154Z" transform="translate(-0.83 -4.863)" fill="#222753"/>
    <path id="Path_410" data-name="Path 410" d="M112.314,276.2h9.115c5.055,0,7.9-2.547,7.9-7.9V251.24h-4.274v16.151c0,3.152-1.2,4.655-3.972,4.655H112.3v-5.855c0-3.9-2.586-6.558-6.7-6.558-4.577,0-7.31,3.416-7.31,8.061,0,4.88,2.811,8.022,7.944,8.168h1.952a3.689,3.689,0,0,1-3.972,3.747,7.807,7.807,0,0,1-3.6-.976l-1.083,3.26A11.526,11.526,0,0,0,105,283.425C108.947,283.435,112.167,281,112.314,276.2Zm-4.079-4.157h-2.059c-2.323,0-3.9-1.688-3.9-4.577,0-2.508,1.122-4.2,3.26-4.2,1.727,0,2.7.82,2.7,3Z" transform="translate(-1.876 -4.833)" fill="#222753"/>
    <rect id="Rectangle_45" data-name="Rectangle 45" width="4.314" height="24.964" transform="translate(133.528 246.407)" fill="#222753"/>
    <path id="Path_411" data-name="Path 411" d="M173.375,273.387V260.3h-4.314v13.087c0,4.274-2.928,6.031-5.914,6.031a5.377,5.377,0,0,1-5.738-5.7,9.7,9.7,0,0,1,1.239-4.567l-3.377-1.239a11.174,11.174,0,0,0-1.952,6.256c0,5.7,3.9,9.408,9.759,9.408C169.52,283.575,173.375,279.76,173.375,273.387Z" transform="translate(-3.202 -5.051)" fill="#222753"/>
    <path id="Path_412" data-name="Path 412" d="M162.792,261.494a2.342,2.342,0,1,0-2.342-2.342,2.342,2.342,0,0,0,2.342,2.342Z" transform="translate(-3.374 -4.967)" fill="#222753"/>
    <rect id="Rectangle_46" data-name="Rectangle 46" width="4.314" height="24.964" transform="translate(176.243 246.407)" fill="#222753"/>
    <path id="Path_413" data-name="Path 413" d="M224.731,257.154a2.342,2.342,0,1,0-2.4-2.323A2.4,2.4,0,0,0,224.731,257.154Z" transform="translate(-4.865 -4.863)" fill="#222753"/>
    <path id="Path_414" data-name="Path 414" d="M265.588,251.24h-4.274v16.151c0,3.152-1.2,4.655-3.972,4.655H249.32a8.582,8.582,0,0,1-1.952-.3c1.952-2.215,3.669-4.684,5.914-5.065v-1.718a11.594,11.594,0,0,0-9.554-5.66,11.4,11.4,0,0,0-9.515,5.621v1.757c2.137.488,4.157,2.742,5.992,4.987a6.978,6.978,0,0,1-2.176.381h-8.051c-2.772,0-3.9-1.5-3.9-4.655v-7.31H221.76v7.309c0,3.152-1.161,4.655-3.9,4.655H203.784v-5.855c0-3.9-2.586-6.558-6.7-6.558-4.577,0-7.31,3.416-7.31,8.061,0,4.879,2.811,8.022,7.944,8.168h1.952a3.689,3.689,0,0,1-3.972,3.747,7.808,7.808,0,0,1-3.6-.976L190.97,281.9a11.526,11.526,0,0,0,5.475,1.532c3.9,0,7.153-2.44,7.3-7.231H218.1a7.075,7.075,0,0,0,5.777-2.362c1.269,1.61,3.26,2.362,5.768,2.362H239.2a8.031,8.031,0,0,0,4.577-1.347A7.5,7.5,0,0,0,248.2,276.2h9.486c5.055,0,7.9-2.547,7.9-7.9Zm-65.922,20.806h-2.059c-2.323,0-3.9-1.688-3.9-4.577,0-2.508,1.122-4.2,3.26-4.2,1.727,0,2.7.82,2.7,3Zm44.033-1.952c-1.571-1.5-2.928-3.562-4.88-4.987a6.627,6.627,0,0,1,4.88-2.137,6.939,6.939,0,0,1,4.879,2.176c-1.913,1.474-3.269,3.523-4.909,4.987Z" transform="translate(-4.08 -4.833)" fill="#222753"/>
    <rect id="Rectangle_47" data-name="Rectangle 47" width="4.314" height="24.964" transform="translate(267.578 246.407)" fill="#222753"/>
    <path id="Path_415" data-name="Path 415" d="M33.735,311.615,23.576,298.03H20.59v19.528h3.455V304L34.2,317.558H37.19V298.03H33.735Z" transform="translate(-0.004 -5.96)" fill="#222753"/>
    <path id="Path_416" data-name="Path 416" d="M46.82,298l-7.29,19.518h3.63l1.757-4.8h8.022l1.757,4.8h3.66L51.065,298Zm-.732,11.506,2.84-7.807,2.84,7.807Z" transform="translate(-0.46 -5.96)" fill="#222753"/>
    <path id="Path_417" data-name="Path 417" d="M57.27,301.25h4.772v16.307H65.5V301.25h4.772v-3.22h-13Z" transform="translate(-0.888 -5.96)" fill="#222753"/>
    <rect id="Rectangle_48" data-name="Rectangle 48" width="3.455" height="19.528" transform="translate(71.284 292.07)" fill="#222753"/>
    <path id="Path_418" data-name="Path 418" d="M89.359,297.61A10.188,10.188,0,1,0,99.577,307.8,10.188,10.188,0,0,0,89.359,297.61Zm0,17.1a6.929,6.929,0,1,1,6.675-6.909,6.831,6.831,0,0,1-6.675,6.909Z" transform="translate(-1.416 -5.95)" fill="#222753"/>
    <path id="Path_419" data-name="Path 419" d="M116.285,311.615,106.126,298.03H103.14v19.528h3.455V304l10.159,13.555h2.986V298.03h-3.455Z" transform="translate(-1.993 -5.96)" fill="#222753"/>
    <path id="Path_420" data-name="Path 420" d="M129.38,298l-7.29,19.518h3.63l1.757-4.8H135.5l1.757,4.8h3.66L133.625,298Zm-.732,11.506,2.84-7.807,2.84,7.807Z" transform="translate(-2.449 -5.96)" fill="#222753"/>
    <path id="Path_421" data-name="Path 421" d="M146.815,298.03H143.36v19.528h10.628v-3.191h-7.173Z" transform="translate(-2.962 -5.96)" fill="#222753"/>
    <path id="Path_422" data-name="Path 422" d="M168.41,298l-7.29,19.518h3.63l1.757-4.8h8.022l1.757,4.8h3.66L172.655,298Zm-.732,11.506,2.84-7.807,2.84,7.807Z" transform="translate(-3.39 -5.96)" fill="#222753"/>
    <path id="Path_423" data-name="Path 423" d="M186.889,298H182.41v19.518h4.479c6.529,0,10.657-3.806,10.657-9.759S193.369,298,186.889,298Zm.088,16.307h-1.113V301.25h1.113c4.392,0,7.085,2.489,7.085,6.529s-2.713,6.558-7.1,6.558Z" transform="translate(-3.903 -5.96)" fill="#222753"/>
    <path id="Path_424" data-name="Path 424" d="M205.431,298H201v19.518h4.479c6.529,0,10.657-3.806,10.657-9.759S211.93,298,205.431,298Zm.088,16.307h-1.113V301.25h1.113c4.392,0,7.085,2.489,7.085,6.529s-2.693,6.558-7.085,6.558Z" transform="translate(-4.351 -5.96)" fill="#222753"/>
    <path id="Path_425" data-name="Path 425" d="M231.524,304.178a6.031,6.031,0,0,0-2.079-4.626c-1.288-1.083-2.84-1.522-5.446-1.522H219.52v19.518h3.455V310.17H225.2l4.157,7.349h3.9l-4.655-8.285A5.719,5.719,0,0,0,231.524,304.178Zm-7.29,2.869h-1.259v-5.855h1.259a4.362,4.362,0,0,1,2.986.761,2.859,2.859,0,0,1,.908,2.166C228.127,306.11,226.869,307.047,224.234,307.047Z" transform="translate(-4.797 -5.96)" fill="#222753"/>
    <path id="Path_426" data-name="Path 426" d="M239.415,309.272h6.617v-3.22h-6.617v-4.8h7.436v-3.22H235.96v19.528h11.155v-3.22h-7.7Z" transform="translate(-5.193 -5.96)" fill="#222753"/>
    <path id="Path_427" data-name="Path 427" d="M257.622,306.217l-1.844-.7c-1.522-.586-2.284-1.317-2.284-2.225a2.508,2.508,0,0,1,2.723-2.459,2.811,2.811,0,0,1,2.079.878,5.5,5.5,0,0,1,1.083,1.435l2.84-1.757a8.344,8.344,0,0,0-1.435-1.952,6.07,6.07,0,0,0-4.509-1.844c-3.572,0-6.236,2.4-6.236,5.65,0,2.4,1.435,4.1,4.3,5.211l1.757.673c2.079.82,2.811,1.493,2.811,2.635a3.016,3.016,0,0,1-3.074,2.928c-1.64,0-2.606-.908-3.1-2.84a3.427,3.427,0,0,0-.176-.7l-3.367.878a9.691,9.691,0,0,0,.673,2.225,6.626,6.626,0,0,0,12.56-2.547C262.423,309.2,260.9,307.476,257.622,306.217Z" transform="translate(-5.512 -5.95)" fill="#222753"/>
    <path id="Path_428" data-name="Path 428" d="M273.132,306.217l-1.844-.7c-1.522-.586-2.284-1.317-2.284-2.225a2.508,2.508,0,0,1,2.723-2.459,2.81,2.81,0,0,1,2.079.878,5.5,5.5,0,0,1,1.083,1.435l2.84-1.757a8.342,8.342,0,0,0-1.435-1.952,6.07,6.07,0,0,0-4.509-1.844c-3.572,0-6.236,2.4-6.236,5.65,0,2.4,1.435,4.1,4.3,5.211l1.757.673c2.079.82,2.811,1.493,2.811,2.635a3.016,3.016,0,0,1-3.074,2.928c-1.64,0-2.606-.908-3.1-2.84a3.429,3.429,0,0,0-.176-.7l-3.367.878a9.69,9.69,0,0,0,.673,2.225,6.626,6.626,0,0,0,12.56-2.547C277.933,309.2,276.411,307.476,273.132,306.217Z" transform="translate(-5.886 -5.95)" fill="#222753"/>
    <path id="Path_429" data-name="Path 429" d="M174.357,180.133l-6.275-4.226.439-.654,6.275,4.206Zm2.713-4.1-6.324-4.138c-.586.9-1.181,1.805-1.786,2.713l6.285,4.2C175.86,177.859,176.475,176.952,177.07,176.034Zm3.22-5-6.392-4.031-1.561,2.45,6.353,4.089Zm-3.055,28.7-7.739-5.4c-9.125,13.077-17.615,24.056-21.86,29.433l7.407,5.855c4.314-5.465,12.931-16.639,22.192-29.892Zm-43.76,5.377c-1.708-2.332-3.4-4.684-5.036-7l-7.69,5.465c1.659,2.342,3.377,4.723,5.1,7.095Zm-6.646-9.339L125,193.161l-7.749,5.377,1.864,2.664Zm52.7.644-7.807-5.338-1.815,2.625,7.749,5.387c.644-.878,1.259-1.776,1.874-2.694Zm-55.012-3.9c-7.651-11.067-14.229-21.47-19.518-30.8l-8.207,4.645c5.455,9.613,12.179,20.221,20,31.522Zm61.482-5.8-7.9-5.163c-1.532,2.332-3.133,4.743-4.772,7.144l7.807,5.309c1.7-2.489,3.338-4.9,4.9-7.28Zm29.814-67.9a68.2,68.2,0,0,0-4.021-23.148l-8.881,3.2a58.614,58.614,0,0,1,3.474,19.948c0,7.739-3.582,18.747-10.647,32.722l8.412,4.255c7.9-15.507,11.7-27.608,11.7-36.967ZM90.849,130.6a53.2,53.2,0,0,1-1.708-7.758l-9.349,1.239a61.425,61.425,0,0,0,1.952,9.154ZM88.9,120.32v-2.84l-9.437-.215v1.561c0,.517,0,1.337.059,2.02ZM99.632,84.9l-7.7-5.455A67.825,67.825,0,0,0,79.47,116.426l9.427.332A58.4,58.4,0,0,1,99.632,84.9Zm111.907,10c-.4-1.074-.839-2.157-1.288-3.2l-8.656,3.757c.39.9.761,1.825,1.113,2.752ZM208.953,88.9a67.944,67.944,0,0,0-4.645-8.041l-7.807,5.26a57.425,57.425,0,0,1,3.991,6.929Zm-33.181-32.2a67.757,67.757,0,0,0-28.126-6.041,69.141,69.141,0,0,0-10.546.809l1.441,9.291a60.378,60.378,0,0,1,9.105-.7,58.349,58.349,0,0,1,24.232,5.211ZM132.325,62.1l-2.469-9.154a66.177,66.177,0,0,0-8.783,3.025l3.669,8.686a59.277,59.277,0,0,1,7.573-2.6Zm5.514-1.2-1.561-9.3c-1.132.185-2.274.41-3.4.654l2.03,9.213c.956-.254,1.942-.439,2.918-.605Zm12.755,151.265c0-.059,5.289-6.46,12.306-15.917l-6.1-4.538c-3.747,5.055-6.978,9.2-9.154,11.965-3.708-4.7-10.481-13.487-17.732-23.89l-6.236,4.353c11.008,15.771,20.933,27.911,21.031,28.028l2.928,3.591ZM164.1,194.6l-6.119-4.509-.976,1.288,6.109,4.518c.332-.468.654-.869.976-1.308Zm6.831-9.466-6.265-4.343c-1.883,2.684-3.845,5.426-5.855,8.159l6.129,4.5c2.04-2.811,4.04-5.6,5.953-8.324Zm31.941-66.449a54.992,54.992,0,0,0-9.047-30.253L187.473,92.6a47.371,47.371,0,0,1,7.807,26.115c0,9.808-7.192,26.252-20.8,47.546l6.4,4.089c14.551-22.885,21.948-40.266,21.948-51.684Zm-82.688,46.492c-1.844-2.928-3.6-5.777-5.2-8.52l-6.558,3.855c1.649,2.811,3.445,5.748,5.338,8.783Zm-5.924-9.759-.79-1.376-6.6,3.777.81,1.415Zm-.976-1.708c-8.656-15.2-13.233-27.325-13.233-35.045A47.688,47.688,0,0,1,102,105.151l-7.291-2.143a54.9,54.9,0,0,0-2.254,15.614c0,9.164,4.782,22.221,14.229,38.812Zm80.268-65.63c-.312-.468-.644-.976-.976-1.415L186.361,91c.283.4.576.81.849,1.22Zm-78.121-4.392-5.192-5.641a55.012,55.012,0,0,0-7.173,8.08l6.138,4.489a47.428,47.428,0,0,1,6.226-6.978Zm76.228,1.727a56.078,56.078,0,0,0-7.349-7.944l-5.055,5.68a47.985,47.985,0,0,1,6.343,6.831Zm-74.1-3.63-4.8-5.855c-.449.361-.888.732-1.327,1.113l5,5.738C116.8,82.416,117.179,82.094,117.559,81.781Zm30.077-10.735a47.38,47.38,0,0,1,17.81,3.445l2.85-7.056A55.285,55.285,0,0,0,113.08,75.6l4.762,5.924a47.107,47.107,0,0,1,29.794-10.452Zm3.64,116.855c2.167-3.1,4.265-6.177,6.256-9.144a336.174,336.174,0,0,0,21.987-37.084c7.544-15.283,8.2-21.919,8.256-23.09v-.215a40.146,40.146,0,1,0-80.293,0l0,.215c0,1.171.712,7.807,8.246,23.09a336.418,336.418,0,0,0,22,37.084c1.952,2.928,4.089,6.051,6.256,9.144l3.63,5.211ZM125.523,96.3a31.278,31.278,0,0,1,53.392,21.909c-.088.732-.976,6.558-7.349,19.518a326.3,326.3,0,0,1-21.411,36.109q-1.23,1.844-2.518,3.728c-.849-1.259-1.7-2.5-2.518-3.728a329.4,329.4,0,0,1-21.411-36.108c-6.47-13.126-7.271-18.942-7.339-19.518A31.1,31.1,0,0,1,125.523,96.3Z" transform="translate(-1.422 0)" fill="url(#linear-gradient)"/>
    <path id="Path_430" data-name="Path 430" d="M23.65,339.4a1.317,1.317,0,1,0-1.2-1.313,1.317,1.317,0,0,0,1.2,1.313Z" transform="translate(-0.049 -6.894)" fill="#222753"/>
    <path id="Path_431" data-name="Path 431" d="M26.86,339.4a1.317,1.317,0,1,0-1.2-1.313A1.317,1.317,0,0,0,26.86,339.4Z" transform="translate(-0.126 -6.894)" fill="#222753"/>
    <path id="Path_432" data-name="Path 432" d="M36.028,357.39a1.239,1.239,0,0,0-.908.39,1.278,1.278,0,0,0-.39.976,1.239,1.239,0,0,0,.39.9,1.308,1.308,0,0,0,1.825-1.874A1.23,1.23,0,0,0,36.028,357.39Z" transform="translate(-0.345 -7.391)" fill="#222753"/>
    <path id="Path_433" data-name="Path 433" d="M39.238,357.39a1.22,1.22,0,0,0-.917.39,1.308,1.308,0,0,0-.381.976,1.239,1.239,0,0,0,.39.9,1.308,1.308,0,0,0,1.825-1.874A1.23,1.23,0,0,0,39.238,357.39Z" transform="translate(-0.422 -7.391)" fill="#222753"/>
    <path id="Path_434" data-name="Path 434" d="M46.32,338.16a1.317,1.317,0,1,0,1.2,1.313A1.317,1.317,0,0,0,46.32,338.16Z" transform="translate(-0.595 -6.927)" fill="#222753"/>
    <path id="Path_435" data-name="Path 435" d="M44.828,349.285a4.236,4.236,0,0,1-.712,2.547,2.684,2.684,0,0,1-2.254,1.064H41.48a2.732,2.732,0,0,1-2.059-.81,3.972,3.972,0,0,1-.9-2.8V343.02H36.6v6.265a4.236,4.236,0,0,1-.7,2.547,2.684,2.684,0,0,1-2.254,1.064h-.371a2.625,2.625,0,0,1-2.03-.81,3.9,3.9,0,0,1-.976-2.8V341H28.315v1.3H26.451a6.08,6.08,0,0,0-4.118,1.386,5.8,5.8,0,0,0-1.893,4.626,6.382,6.382,0,0,0,1.239,4.089,4.4,4.4,0,0,0,3.621,1.7,4.948,4.948,0,0,0,3.66-1.552A4.265,4.265,0,0,0,33,354.8h.82a4.275,4.275,0,0,0,3.757-1.786,4.216,4.216,0,0,0,3.718,1.805h.82a4.45,4.45,0,0,0,3.1-1.132A5.3,5.3,0,0,0,46.8,349.51v-6.49H44.847ZM25.31,352.213a2.469,2.469,0,0,1-2.01-.9,4.548,4.548,0,0,1-.869-3,4.138,4.138,0,0,1,.9-2.85,4.011,4.011,0,0,1,3.221-1.21H28.3v5.27a6.509,6.509,0,0,0,.117,1.308,4.656,4.656,0,0,1-3.113,1.357Z" transform="translate(0 -6.996)" fill="#222753"/>
    <path id="Path_436" data-name="Path 436" d="M96.166,349.163a4.236,4.236,0,0,1-.7,2.547,2.684,2.684,0,0,1-2.264,1.064H92.155c-1.952,0-2.928-1.317-2.928-3.972a9.134,9.134,0,0,0-.4-2.791,4.908,4.908,0,0,0-7.534-2.654,4.753,4.753,0,0,0-1.952,2.625,7.808,7.808,0,0,0-.429,2.82c0,2.654-.976,3.972-2.986,3.972H74.95a2.615,2.615,0,0,1-2.01-.81,3.9,3.9,0,0,1-.976-2.8v-.107q0-4.987-5.192-5H61.658l5-5.192-1.132-1.132-6.148,6.382v1.864h7.417a3.562,3.562,0,0,1,2.459.7,3.064,3.064,0,0,1,.82,2.43v.078c0,2.391-1.23,3.582-3.669,3.582H57.618a2.977,2.977,0,0,1-2.362-.781,3.9,3.9,0,0,1-.625-2.547V335.9H52.68v14.17a4.723,4.723,0,0,0,1.1,3.3,4.43,4.43,0,0,0,3.445,1.327h9.593a4.958,4.958,0,0,0,4.235-1.805,4.362,4.362,0,0,0,3.728,1.805h1.464a4.372,4.372,0,0,0,3.7-1.718,5.133,5.133,0,0,0,8.373,0,4.343,4.343,0,0,0,3.669,1.718h1.5a4.45,4.45,0,0,0,3.074-1.132,5.329,5.329,0,0,0,1.571-4.177V335.9H96.186Zm-9.818,2.928a2.723,2.723,0,0,1-2.264,1.161,2.771,2.771,0,0,1-2.059-.878,5.016,5.016,0,0,1-1.122-3.581,5.553,5.553,0,0,1,.7-3,2.733,2.733,0,0,1,2.459-1.3,2.684,2.684,0,0,1,2.225.976,5.055,5.055,0,0,1,.927,3.3,5.455,5.455,0,0,1-.869,3.3Z" transform="translate(-0.777 -6.873)" fill="#222753"/>
    <rect id="Rectangle_49" data-name="Rectangle 49" width="1.971" height="18.796" transform="translate(102.445 329.027)" fill="#222753"/>
    <path id="Path_437" data-name="Path 437" d="M131.2,344.083a1.659,1.659,0,0,0,.507-1.288,1.825,1.825,0,0,0-.634-1.493,2.654,2.654,0,0,0-1.786-.537l1.62-1.776-.6-.449-2.332,2.479v.9a4.81,4.81,0,0,1,1.376-.224,1.5,1.5,0,0,1,.976.312.976.976,0,0,1,.381.791c0,.527-.342.79-.976.79H127.25v.927H129.8a2.03,2.03,0,0,0,1.405-.429Z" transform="translate(-2.574 -6.937)" fill="#222753"/>
    <path id="Path_438" data-name="Path 438" d="M144.857,340.664a1.239,1.239,0,0,0,.908-.39,1.278,1.278,0,0,0,.39-.976,1.353,1.353,0,0,0-1.3-1.3,1.278,1.278,0,0,0-.927.4,1.249,1.249,0,0,0-.4.9,1.288,1.288,0,0,0,.4.976A1.269,1.269,0,0,0,144.857,340.664Z" transform="translate(-2.966 -6.924)" fill="#222753"/>
    <path id="Path_439" data-name="Path 439" d="M149.654,354.7h.7a4.45,4.45,0,0,0,3.133-1.132,5.3,5.3,0,0,0,1.581-4.177V342.9h-1.952v6.265a4.236,4.236,0,0,1-.7,2.547,2.684,2.684,0,0,1-2.254,1.064h-.371a2.723,2.723,0,0,1-2.059-.81,3.9,3.9,0,0,1-.9-2.8V342.9h-1.952v6.265a4.235,4.235,0,0,1-.7,2.547,2.684,2.684,0,0,1-2.264,1.064h-.478a2.625,2.625,0,0,1-2.03-.81,3.9,3.9,0,0,1-.976-2.8V335.9h-1.952v13.263q0,3.611-3.669,3.611h-7.954a4.45,4.45,0,0,1-3.074-1.064,3.9,3.9,0,0,1-.6-5.124,4.88,4.88,0,0,1,1.952-1.6l-.976-1.493a5.6,5.6,0,0,0-2.567,2.059,5.67,5.67,0,0,0-.976,3.25,5.855,5.855,0,0,0,1.3,3.9,6.5,6.5,0,0,0,5.221,2.03h8.207a4.792,4.792,0,0,0,4.148-1.835,4.187,4.187,0,0,0,3.728,1.835h.849a4.255,4.255,0,0,0,3.718-1.805,4.235,4.235,0,0,0,3.728,1.805Z" transform="translate(-2.366 -6.873)" fill="#222753"/>
    <path id="Path_440" data-name="Path 440" d="M148.067,340.664a1.24,1.24,0,0,0,.908-.39,1.278,1.278,0,0,0,.39-.976,1.353,1.353,0,0,0-1.3-1.3,1.278,1.278,0,0,0-.927.4,1.249,1.249,0,0,0-.4.9,1.288,1.288,0,0,0,.4.976,1.269,1.269,0,0,0,.927.39Z" transform="translate(-3.043 -6.924)" fill="#222753"/>
    <path id="Path_441" data-name="Path 441" d="M154.808,357.39a1.22,1.22,0,0,0-.917.39,1.308,1.308,0,0,0-.381.976,1.3,1.3,0,0,0,2.6,0,1.308,1.308,0,0,0-.381-.976A1.22,1.22,0,0,0,154.808,357.39Z" transform="translate(-3.206 -7.391)" fill="#222753"/>
    <path id="Path_442" data-name="Path 442" d="M151.6,357.39a1.22,1.22,0,0,0-.917.39,1.308,1.308,0,0,0-.381.976,1.278,1.278,0,0,0,.39.9,1.3,1.3,0,0,0,2.206-.9,1.308,1.308,0,0,0-.381-.976A1.22,1.22,0,0,0,151.6,357.39Z" transform="translate(-3.129 -7.391)" fill="#222753"/>
    <path id="Path_443" data-name="Path 443" d="M178.283,341.54l-.449,1.727a9.759,9.759,0,0,1,6.548,2.7,7.036,7.036,0,0,1,1.366,2.118,6.089,6.089,0,0,1,.5,2.371,2.332,2.332,0,0,1-.654,1.747,3.074,3.074,0,0,1-2.167.7h-1.552a5.114,5.114,0,0,0,1.435-3.63,4.333,4.333,0,0,0-.878-2.742,3.8,3.8,0,0,0-3.162-1.435,3.9,3.9,0,0,0-2.928,1.151,4.177,4.177,0,0,0-1.132,3,5.241,5.241,0,0,0,1.474,3.66h-6.265v-5.465a4.977,4.977,0,0,0-1.074-3.308,4.528,4.528,0,0,0-3.611-1.464,4.714,4.714,0,0,0-3.591,1.435,6.392,6.392,0,0,0-1.552,4.577,6.529,6.529,0,0,0,1.3,4.255,5.241,5.241,0,0,0,4.382,1.893h2.167a3.689,3.689,0,0,1-.927,2.508,3.123,3.123,0,0,1-2.43.976,6.372,6.372,0,0,1-2.879-.82l-.586,1.718a7.807,7.807,0,0,0,3.66.976,4.957,4.957,0,0,0,3.386-1.161,5.66,5.66,0,0,0,1.757-4.206h7.075a5.436,5.436,0,0,0,1.786-.283,5.524,5.524,0,0,0,1.835.283h2.85a4.235,4.235,0,0,0,3.152-1.1,4.44,4.44,0,0,0,1.132-3.269,7.944,7.944,0,0,0-2.118-5.221A10.989,10.989,0,0,0,178.283,341.54Zm-9.847,11.369h-1.952a3.991,3.991,0,0,1-2.654-.839,4.2,4.2,0,0,1-1.269-3.357,5.114,5.114,0,0,1,.7-2.85,2.733,2.733,0,0,1,2.459-1.278c1.825,0,2.733,1.034,2.733,3.084Zm12.316-1.688a3.386,3.386,0,0,1-1.483,1.386,3.777,3.777,0,0,1-1.493-1.415,3.9,3.9,0,0,1-.566-2.03,2.391,2.391,0,0,1,.556-1.679,2.157,2.157,0,0,1,3.006,0,2.615,2.615,0,0,1,.537,1.727A3.845,3.845,0,0,1,180.752,351.221Z" transform="translate(-3.377 -7.009)" fill="#222753"/>
    <path id="Path_444" data-name="Path 444" d="M213.033,344.082a1.659,1.659,0,0,0,.507-1.288,1.825,1.825,0,0,0-.634-1.493,2.655,2.655,0,0,0-1.786-.537l1.581-1.805-.6-.449-2.264,2.508v.9a4.93,4.93,0,0,1,1.386-.224,1.5,1.5,0,0,1,.976.312.976.976,0,0,1,.381.791c0,.527-.342.791-.976.791H209.12v.927h2.547A2.03,2.03,0,0,0,213.033,344.082Z" transform="translate(-4.546 -6.936)" fill="#222753"/>
    <path id="Path_445" data-name="Path 445" d="M226.654,349.163a4.236,4.236,0,0,1-.7,2.547,2.684,2.684,0,0,1-2.264,1.064h-.39a2.625,2.625,0,0,1-2.03-.81,3.9,3.9,0,0,1-.976-2.8V335.9h-1.952v13.263q0,3.611-3.669,3.611h-7.954a4.489,4.489,0,0,1-3.084-1.064,3.9,3.9,0,0,1-.586-5.124,4.879,4.879,0,0,1,1.952-1.6l-.976-1.493a5.6,5.6,0,0,0-2.567,2.059,5.67,5.67,0,0,0-.976,3.25,5.855,5.855,0,0,0,1.3,3.9,6.5,6.5,0,0,0,5.221,2.03h8.207a4.792,4.792,0,0,0,4.148-1.835,4.187,4.187,0,0,0,3.728,1.835h.849a4.45,4.45,0,0,0,3.133-1.132,5.328,5.328,0,0,0,1.571-4.177v-6.49h-1.952Z" transform="translate(-4.338 -6.873)" fill="#222753"/>
    <path id="Path_446" data-name="Path 446" d="M228.2,338.16a1.317,1.317,0,0,0,0,2.625,1.313,1.313,0,1,0,0-2.625Z" transform="translate(-4.977 -6.927)" fill="#222753"/>
    <rect id="Rectangle_50" data-name="Rectangle 50" width="1.971" height="18.796" transform="translate(229.342 329.027)" fill="#222753"/>
    <path id="Path_447" data-name="Path 447" d="M258.379,340.785a1.288,1.288,0,0,0,.976-.4,1.308,1.308,0,0,0-.976-2.225,1.239,1.239,0,0,0-.9.39,1.317,1.317,0,0,0,.9,2.235Z" transform="translate(-5.703 -6.927)" fill="#222753"/>
    <path id="Path_448" data-name="Path 448" d="M270.9,352.937a3.9,3.9,0,0,1-2.928-1.152,4.079,4.079,0,0,1-1.181-3.016,3.981,3.981,0,0,1,.839-2.547,3.738,3.738,0,0,1,3.045-1.278h4.255v-1.952h-4.6a5.348,5.348,0,0,0-3.9,1.464,5.855,5.855,0,0,0-1.7,4.372,6.1,6.1,0,0,0,1.444,4.118h-4.265a2.723,2.723,0,0,1-2.059-.81,3.9,3.9,0,0,1-.9-2.8v-6.265H257v6.265a4.235,4.235,0,0,1-.7,2.547,2.684,2.684,0,0,1-2.254,1.064h-3.084v-5.465a4.88,4.88,0,0,0-1.073-3.308,4.509,4.509,0,0,0-3.611-1.464,4.7,4.7,0,0,0-3.582,1.435,6.392,6.392,0,0,0-1.552,4.577,6.48,6.48,0,0,0,1.3,4.255,5.221,5.221,0,0,0,4.372,1.893h2.176a3.786,3.786,0,0,1-.927,2.508,3.123,3.123,0,0,1-2.43.976,6.334,6.334,0,0,1-2.879-.82l-.6,1.718a7.866,7.866,0,0,0,3.669.976,4.968,4.968,0,0,0,3.386-1.161,5.621,5.621,0,0,0,1.747-4.206h3.308a4.255,4.255,0,0,0,3.718-1.805,4.235,4.235,0,0,0,3.728,1.805h15.439v-1.952Zm-21.87,0h-1.952a3.991,3.991,0,0,1-2.654-.839,4.2,4.2,0,0,1-1.269-3.357,5.113,5.113,0,0,1,.7-2.85,2.733,2.733,0,0,1,2.45-1.278c1.825,0,2.742,1.034,2.742,3.084Z" transform="translate(-5.318 -7.037)" fill="#222753"/>
  </g>
</svg>
