<svg xmlns="http://www.w3.org/2000/svg" width="512" height="512" viewBox="0 0 512 512"><path fill="#430098" d="M512 472c0 22.1-17.9 40-40 40H40c-22.1 0-40-17.9-40-40V40C0 17.9 17.9 0 40 0h432c22.1 0 40 17.9 40 40v432z"/><g fill-rule="evenodd" clip-rule="evenodd"><path fill="#FF671B" d="M458.1 281.7c5.7 0 10.3 4.6 10.3 10.3 0 5.7-4.6 10.3-10.3 10.3-5.7 0-10.3-4.6-10.3-10.3 0-5.7 4.6-10.3 10.3-10.3zm0 1.9c4.6 0 8.4 3.8 8.4 8.4 0 4.6-3.8 8.4-8.4 8.4-4.6 0-8.4-3.8-8.4-8.4 0-4.7 3.8-8.4 8.4-8.4zm-4 2.2h5c4.4.4 4.7 4.7 1.2 6.2 3.1.8 1.2 4.1 2.5 5.9h-2.5c-.6-1.7.2-5.2-2-5.1h-2.2v5.1h-2v-12.1zm1.9 1.9h2.5c2.6 0 2.4 3 0 3.1H456v-3.1z"/><path fill="#FFF" d="M216.5 209.8c21.7-.7 35.2 8.2 35.7 27.4v64.9h-30.3v-58.2c.5-8-7.6-9-10.4-8.8h-9.6v67.2h-30.1v-67.2H152v67h-30.2v-66.9H83.6c-4.4 1.7-3.2 3.7.5 6.4 8.3 7.1 19.9 13.9 23.7 23.8 3.8 9.8 1 19.2-4.9 26.3-5 6.1-12.6 10-22 10.3H43.7v-25.5h27c5.4-2.4 1.1-6.8-6-11.9C51.5 255 44 245 43.7 235c-.3-12.5 8-24 34.1-25.2h138.7z"/><path fill="#FF671B" d="M298.6 209.6h-.2c-26.1 1.2-34.5 12.7-34.1 25.2.3 10.1 7.8 20 21 29.6 7.1 5.2 11.4 9.6 6 11.9h-39.2v25.5h49.5c9.4-.3 17-4.3 22-10.3 5.9-7.1 8.7-16.5 4.8-26.3-3.9-10-15.4-16.7-23.7-23.9-3.6-2.7-4.9-4.7-.5-6.4h46.6c-10.1 12.7-13.4 39.5 2 54.8 11.6 12.7 35.2 18.3 54.3 2.2V302h30.3v-92.4c-46.2.1-92.5 0-138.8 0zm108.7 58.7l-9.6-9.9-18.1 18-14.4-14.4 18.1-18-8.9-8.9h32.9v33.2z"/></g></svg>