<svg xmlns="http://www.w3.org/2000/svg" viewBox="0 0 200 65" width="200" height="65">
  <rect width="200" height="65" fill="#FFFFFF"/>
  <g transform="translate(20, 15)">
    <path d="M50,0 L40,30 L30,30 L20,0 L30,0 L35,20 L40,0 Z" fill="#1A1F71"/>
    <rect x="55" y="0" width="8" height="30" fill="#1A1F71"/>
    <path d="M70,5 C75,5 78,7 78,12 C78,15 76,17 73,18 C76,19 78,21 78,24 C78,28 75,30 70,30 L60,30 L60,5 Z M68,11 L68,16 L70,16 C72,16 73,15 73,13.5 C73,12 72,11 70,11 Z M68,20 L68,26 L70,26 C72,26 73,25 73,23 C73,21 72,20 70,20 Z" fill="#1A1F71"/>
    <path d="M85,5 L95,5 L100,25 L105,5 L115,5 L105,30 L95,30 Z" fill="#1A1F71"/>
  </g>
  <g transform="translate(20, 50)">
    <rect width="160" height="2" fill="#F7B600"/>
  </g>
</svg>
