<svg id="Layer_1" data-name="Layer 1" xmlns="http://www.w3.org/2000/svg" viewBox="0 0 512 512"><defs><style>.cls-1{fill:#0d52a2;}.cls-2{fill:#fff;}.cls-3{fill:#fed10a;}</style></defs><title>zajil-express</title><path class="cls-1" d="M512,472a40,40,0,0,1-40,40H40A40,40,0,0,1,0,472V40A40,40,0,0,1,40,0H472a40,40,0,0,1,40,40Z"/><path class="cls-2" d="M275.59,294H270.7a5.72,5.72,0,0,1,0-11.44h4.89a2.77,2.77,0,0,0,2.73-2.81h0V233.28a5.54,5.54,0,1,1,11.07,0h0v46.4A14,14,0,0,1,275.68,294h-.09Z"/><path class="cls-2" d="M254.41,267.16a5.64,5.64,0,0,1-5.53-5.71V204a5.54,5.54,0,0,1,11.08-.45v57.86a5.63,5.63,0,0,1-5.5,5.71Z"/><path class="cls-2" d="M216.15,222.41H180.57a5.72,5.72,0,0,0,0,11.43h35.58a6.88,6.88,0,0,1,6.76,7v7.86a6.89,6.89,0,0,1-6.76,7H136.59v-52.6a5.54,5.54,0,0,0-11.07,0v72.59a6.27,6.27,0,0,1-6.19,6.34L111,282a6.28,6.28,0,0,1-6.19-6.35h0V248a5.54,5.54,0,0,0-11.07,0h0v27.61A17.56,17.56,0,0,0,111,293.48h0l8.35-.05a17.52,17.52,0,0,0,17.25-17.81v-8.54l79.52,0c9.86,0,17.84-8.26,17.87-18.45v-7.86A18.13,18.13,0,0,0,216.15,222.41Z"/><ellipse class="cls-2" cx="210.7" cy="285.48" rx="6.92" ry="7.14"/><ellipse class="cls-2" cx="283.85" cy="210.34" rx="6.92" ry="7.14"/><ellipse class="cls-2" cx="246.07" cy="329.91" rx="6.92" ry="7.14"/><ellipse class="cls-2" cx="218.27" cy="329.91" rx="6.92" ry="7.14"/><path class="cls-2" d="M135.25,400.85H98.65a5.5,5.5,0,0,1-4.8-2.85,5.88,5.88,0,0,1,0-5.72l32.57-58.48H99.31a5.72,5.72,0,0,1,0-11.43H136a5.48,5.48,0,0,1,4.8,2.85,5.93,5.93,0,0,1,0,5.72l-32.57,58.48h27a5.72,5.72,0,0,1,0,11.43Z"/><path class="cls-2" d="M190.38,401.14H168.56c-9.62,0-17.42-8.05-17.43-18v-6.47a17.72,17.72,0,0,1,17.43-18h16.28v-5.89a6,6,0,0,0-5.9-6.09h-13.6a5.72,5.72,0,0,1,0-11.43h13.6c9.39,0,17,7.87,17,17.57v42.57A5.67,5.67,0,0,1,190.38,401.14ZM168.56,370.2a6.46,6.46,0,0,0-6.32,6.52v6.47a6.45,6.45,0,0,0,6.32,6.51h16.28V370.21Z"/><path class="cls-2" d="M209.15,418.59h-1.77a5.72,5.72,0,0,1,0-11.42h1.77a3.54,3.54,0,0,0,3.54-3.53V352.06a5.54,5.54,0,1,1,11.07-.44,3.23,3.23,0,0,1,0,.44V403.5a14.82,14.82,0,0,1-14.52,15.09Z"/><path class="cls-2" d="M284.14,401.82h-4.57a14.16,14.16,0,0,1-13.84-14.34V328.73a5.54,5.54,0,1,1,11.08-.44v59.19a2.82,2.82,0,0,0,2.76,2.87h4.57a5.63,5.63,0,0,1,5.53,5.71,5.55,5.55,0,0,1-5.3,5.76Z"/><path class="cls-2" d="M246.07,400.56a5.64,5.64,0,0,1-5.54-5.72V352.06a5.54,5.54,0,1,1,11.08-.44,3.23,3.23,0,0,1,0,.44v42.78A5.63,5.63,0,0,1,246.07,400.56Z"/><path class="cls-3" d="M418.81,135.11h0c0-.29,0-.55,0-.89a.43.43,0,0,0,0-.16,6.66,6.66,0,0,0-.17-.89v-.12c-.09-.3-.17-.55-.25-.89h0c-.12-.3-.25-.54-.36-.8a.14.14,0,0,0-.09-.12,3.75,3.75,0,0,0-.44-.72.16.16,0,0,1-.08-.12c-.17-.26-.37-.46-.53-.68h-.05l-.61-.62-.08-.09a3.57,3.57,0,0,0-.69-.54h-.08c-.25-.17-.5-.29-.78-.46a.39.39,0,0,0-.13,0l-.32-.17L335.57,94a7.51,7.51,0,0,0-6,0L251.1,127.71a2.59,2.59,0,0,0-.33.17s-.08,0-.12,0a7.45,7.45,0,0,0-.77.46h-.09a4.57,4.57,0,0,0-.69.54L249,129c-.2.21-.4.38-.61.63h0a5.78,5.78,0,0,0-.53.67.2.2,0,0,0-.08.12q-.24.34-.45.72a.13.13,0,0,1-.08.12l-.37.81h0a2.68,2.68,0,0,0-.24.88v.12a8.72,8.72,0,0,0-.16.89.25.25,0,0,1,0,.17,6.46,6.46,0,0,0,0,.88v42.07a7.86,7.86,0,0,0,15.72,0V147.55L324.86,176v93.26l-12.62-6.47a7.72,7.72,0,0,0-10.38,3.41l-.12.24a8.23,8.23,0,0,0,3.53,10.85l23.81,12.3a1.76,1.76,0,0,0,.2.09,1.3,1.3,0,0,1,.38.17,2.43,2.43,0,0,0,.61.2l.36.14a3.55,3.55,0,0,0,.65.12c.13,0,.2.05.33.05a7.91,7.91,0,0,0,1,.07h0a7.93,7.93,0,0,0,1-.07c.13,0,.21-.05.33-.05l.69-.12.36-.14c.2-.08.41-.12.61-.2a.87.87,0,0,0,.33-.17,1.76,1.76,0,0,0,.2-.09l78.45-40.13a8.12,8.12,0,0,0,4.36-7.27l-.08-107Zm-86.26-24.84L391,135.36l-58.46,26.52-58.47-26.52Zm7.81,159V176l62.77-28.45v89.56Z"/></svg>